# AST/ASF file generated using VICON BodyLanguage
# -----------------------------------------------
:version 1.10
:name VICON
:units
  mass 1.0
  length 0.45
  angle deg
:documentation
   .ast/.asf automatically generated from VICON data using
   VICON BodyBuilder and BodyLanguage model FoxedUp or BRILLIANT.MOD
:root
   order TX TY TZ RX RY RZ
   axis XYZ
   position 0 0 0  
   orientation 0 0 0 
:bonedata
  begin
     id 1 
     name lhipjoint
     direction 0.630082 -0.636569 0.44472 
     length 2.82754 
     axis 0 0 0  XYZ
  end
  begin
     id 2 
     name lfemur
     direction 0.34202 -0.939693 0  
     length 7.26371  
     axis 0 0 20  XYZ
    dof rx ry rz
    limits (-160.0 20.0)
           (-70.0 70.0)
           (-60.0 70.0)
  end
  begin
     id 3 
     name ltibia
     direction 0.34202 -0.939693 0   
     length 7.88616   
     axis 0 0 20   XYZ
    dof rx
    limits (-10.0 170.0)
  end
  begin
     id 4 
     name lfoot
     direction 0.0603448 -0.165796 0.984312   
     length 1.77861   
     axis -90 7.62852e-016 20   XYZ
    dof rx rz
    limits (-45.0 90.0)
           (-70.0 20.0)
  end
  begin
     id 5 
     name ltoes
     direction 1.53577e-011 -4.21876e-011 1   
     length 0.902235   
     axis -90 7.62852e-016 20   XYZ
    dof rx
    limits (-90.0 20.0)
  end
  begin
     id 6 
     name rhipjoint
     direction -0.656778 -0.61817 0.431866   
     length 2.9117  
     axis 0 0 0  XYZ 
  end
  begin
     id 7 
     name rfemur
     direction -0.34202 -0.939693 0   
     length 6.81603   
     axis 0 0 -20   XYZ
    dof rx ry rz
    limits (-160.0 20.0)
           (-70.0 70.0)
           (-70.0 60.0)
  end
  begin
     id 8 
     name rtibia
     direction -0.34202 -0.939693 0   
     length 8.05997   
     axis 0 0 -20   XYZ
    dof rx
    limits (-10.0 170.0)
 end
 begin
     id 9 
     name rfoot
     direction -0.0862404 -0.236944 0.967688   
     length 1.84899  
     axis -90 -7.62852e-016 -20   XYZ
    dof rx rz
    limits (-45.0 90.0)
           (-20.0 70.0)
  end
  begin
     id 10 
     name rtoes
     direction -1.53561e-011 -4.21798e-011 1   
     length 0.931579   
     axis -90 -7.62852e-016 -20   XYZ
    dof rx
    limits (-90.0 20.0)
  end
  begin
     id 11 
     name lowerback
     direction -0.0110203 0.991769 -0.127564   
     length 2.05686   
     axis 0 0 0   XYZ
    dof rx ry rz
    limits (-20.0 45.0)
           (-30.0 30.0)
           (-30.0 30.0)
  end
  begin
     id 12 
     name upperback
     direction 0.0109719 0.99993 -0.00432479   
     length 2.06234   
     axis 0 0 0   XYZ
    dof rx ry rz
    limits (-20.0 45.0)
           (-30.0 30.0)
           (-30.0 30.0)
  end
  begin
     id 13 
     name thorax
     direction 0.0173308 0.998351 0.0547306   
     length 2.09856   
     axis 0 0 0   XYZ
    dof rx ry rz
    limits (-20.0 45.0)
           (-30.0 30.0)
           (-30.0 30.0)
  end
  begin
     id 14 
     name lowerneck
     direction -0.0311736 0.989033 0.144366   
     length 1.98151   
     axis 0 0 0   XYZ
    dof rx ry rz
    limits (-20.0 45.0)
           (-30.0 30.0)
           (-30.0 30.0)
  end
  begin
     id 15 
     name upperneck
     direction 0.0421057 0.975772 -0.214698   
     length 2.01457   
     axis 0 0 0   XYZ
    dof rx ry rz
    limits (-20.0 45.0)
           (-30.0 30.0)
           (-30.0 30.0)
  end
  begin
     id 16
     name head
     direction 0.0136911 0.995958 -0.0887718  
     length 2.03562  
     axis 0 0 0   XYZ
    dof rx ry rz
    limits (-20.0 45.0)
           (-30.0 30.0)
           (-30.0 30.0)
  end
  begin
     id 17 
     name lclavicle
     direction 0.915335 0.396201 0.0720134  
     length 4.16217  
     axis 0 0 0   XYZ
    dof ry rz
    limits (-20.0 10.0)
           (0.0 20.0)
  end
  begin
     id 18 
     name lhumerus
     direction 1 -4.48965e-011 6.383e-018   
     length 4.93042   
     axis -180 -30 -90   XYZ
    dof rx ry rz
    limits (-60.0 90.0)
           (-90.0 90.0)
           (-90.0 90.0)
  end
  begin
     id 19
     name lradius
     direction 1 -4.48972e-011 8.8689e-027   
     length 3.68177   
     axis -180 -30 -90   XYZ
    dof rx
    limits (-10.0 170.0)
  end
  begin
     id 20
     name lwrist
     direction 1 -4.48953e-011 1.17971e-026   
     length 1.84089   
     axis -7.69454e-015 90 90   XYZ
    dof ry
    limits (-180.0 0.0)
 end
  begin
     id 21 
     name lhand
     direction 1 -4.49027e-011 2.35802e-026   
     length 0.721479   
     axis -1.50533e-014 90 90   XYZ
    dof rx rz
    limits (-90.0 90.0)
           (-45.0 45.0)
  end
  begin
     id 22 
     name lfingers
     direction 1 -4.48915e-011 4.72027e-026   
     length 0.581675   
     axis -3.01059e-014 90 90   XYZ
    dof rx
    limits (0.0 90.0)
  end
  begin
     id 23
     name lthumb
     direction 0.707107 -6.34948e-011 0.707107   
     length 0.835172   
     axis -90 45 -5.12164e-014   XYZ
    dof rx rz
    limits (-45.0 45.0)
           (-45.0 45.0)
  end
  begin
     id 24 
     name rclavicle
     direction -0.882781 0.469197 0.0234974   
     length 3.95647  
     axis 0 0 0   XYZ 
    dof ry rz
    limits (-10.0 20.0)
           (-20.0 0.0)
  end
  begin
     id 25 
     name rhumerus
     direction -1 -4.48965e-011 -1.54906e-018  
     length 5.07905   
     axis -180 30 90   XYZ
    dof rx ry rz
    limits (-90.0 60.0)
           (-90.0 90.0)
           (-90.0 90.0)
  end
  begin
     id 26 
     name rradius
     direction -1 -4.48972e-011 5.47489e-027   
     length 3.54394   
     axis -180 30 90   XYZ
    dof rx
    limits (-10.0 170.0)
  end
  begin
     id 27 
     name rwrist
     direction -1 -4.48955e-011 1.17969e-026   
     length 1.77197   
     axis -7.69454e-015 -90 -90   XYZ
    dof ry
    limits (-180.0 0.0)
  end
  begin
     id 28
     name rhand
     direction -1 -4.48982e-011 2.35888e-026   
     length 0.681156   
     axis -1.50533e-014 -90 -90   XYZ
    dof rx rz
    limits (-90.0 90.0)
           (-45.0 45.0)
  end
  begin
     id 29
     name rfingers
     direction -1 -4.48955e-011 4.71877e-026   
     length 0.549165   
     axis -3.01059e-014 -90 -90   XYZ
    dof rx
    limits (0.0 90.0)
  end
  begin
     id 30
     name rthumb
     direction -0.707107 -6.3491e-011 0.707107   
     length 0.788495   
     axis -90 -45 5.12164e-014   XYZ
    dof rx rz
    limits (-45.0 45.0)
           (-45.0 45.0)
  end
:hierarchy
  begin
    root lhipjoint rhipjoint lowerback
    lhipjoint lfemur
    lfemur ltibia
    ltibia lfoot
    lfoot ltoes
    rhipjoint rfemur
    rfemur rtibia
    rtibia rfoot
    rfoot rtoes
    lowerback upperback
    upperback thorax
    thorax lowerneck lclavicle rclavicle
    lowerneck upperneck
    upperneck head
    lclavicle lhumerus
    lhumerus lradius
    lradius lwrist
    lwrist lhand lthumb
    lhand lfingers
    rclavicle rhumerus
    rhumerus rradius
    rradius rwrist
    rwrist rhand rthumb
    rhand rfingers
  end

#!OML:ASF H:\Bending\Project 1\Capture day 1\Session 1\Subject.ASF
:FULLY-SPECIFIED
:DEGREES
17
root -10.3378 18.0258 -16.6053 -174.295 86.6461 -178.594
lowerback 5.27476 -0.293717 -1.207
upperback -2.87407 -0.385328 1.53272
thorax -5.93209 -0.101582 2.31347
lowerneck -21.1632 -5.56163 -6.80749
upperneck 32.8448 -6.76839 4.87545
head 15.5535 -2.76127 1.98276
rclavicle -4.01918e-015 1.98785e-014
rhumerus -36.0198 -20.0217 -69.9343
rradius 23.2018
rwrist 36.23
rhand -18.8829 -10.0628
rfingers 7.12502
rthumb 7.41819 -39.9128
lclavicle -4.01918e-015 1.98785e-014
lhumerus -35.466 13.2898 83.254
lradius 24.3296
lwrist 18.8755
lhand -35.785 9.85513
lfingers 7.12502
lthumb -8.90231 39.6473
rfemur 5.81592 -9.69146 14.583
rtibia 4.77083e-015
rfoot -10.0025 -9.98996
rtoes 6.4437
lfemur -9.13979 -21.3376 -14.3951
ltibia 20.9033
lfoot -23.726 18.8974
ltoes -25.7086
18
root -10.338 18.0253 -16.6148 -174.948 86.6457 -179.27
lowerback 5.28482 -0.306474 -1.2628
upperback -2.90919 -0.407108 1.52095
thorax -5.9736 -0.109528 2.33536
lowerneck -21.0755 -5.55401 -6.82823
upperneck 32.8745 -6.77869 4.9496
head 15.5531 -2.75682 2.01851
rclavicle 9.20621e-015 8.34896e-015
rhumerus -36.1212 -20.4126 -69.6466
rradius 23.0169
rwrist 36.8295
rhand -18.8159 -9.97055
rfingers 7.12502
rthumb 7.48289 -39.8182
lclavicle 9.20621e-015 8.34896e-015
lhumerus -35.506 13.7181 83.0761
lradius 24.3583
lwrist 19.0171
lhand -35.9069 9.90516
lfingers 7.12502
lthumb -9.01995 39.6923
rfemur 5.79163 -9.69734 14.5143
rtibia 3.18055e-015
rfoot -9.96526 -10.0135
rtoes 6.09498
lfemur -9.16637 -21.2261 -14.4499
ltibia 20.8877
lfoot -23.6678 18.7702
ltoes -25.5952
19
root -10.3382 18.0246 -16.6246 -175.674 86.6927 -180.014
lowerback 5.28271 -0.316428 -1.34017
upperback -2.93184 -0.426963 1.51022
thorax -5.99496 -0.116003 2.37001
lowerneck -21.0163 -5.53456 -6.80414
upperneck 32.9114 -6.77098 4.97749
head 15.5567 -2.74567 2.03003
rclavicle 6.94504e-015 -1.23246e-014
rhumerus -36.1835 -20.8284 -69.3816
rradius 22.8087
rwrist 37.4827
rhand -18.7779 -9.90624
rfingers 7.12502
rthumb 7.51953 -39.7526
lclavicle 6.94504e-015 -1.23246e-014
lhumerus -35.5425 14.1078 82.9149
lradius 24.4073
lwrist 18.9688
lhand -35.9719 9.89433
lfingers 7.12502
lthumb -9.08273 39.6788
rfemur 5.76308 -9.65566 14.435
rtibia -1.59028e-014
rfoot -9.94543 -10.0174
rtoes 5.98641
lfemur -9.17895 -21.0413 -14.5241
ltibia 20.8713
lfoot -23.5349 18.7206
ltoes -26.0053
20
root -10.3388 18.0242 -16.6346 -176.348 86.7808 -180.697
lowerback 5.27673 -0.319382 -1.41294
upperback -2.93991 -0.437516 1.49622
thorax -5.99921 -0.118535 2.39749
lowerneck -21.0014 -5.51116 -6.74348
upperneck 32.9638 -6.75287 4.95848
head 15.5728 -2.73177 2.01678
rclavicle -9.77151e-015 4.77083e-015
rhumerus -36.226 -21.3133 -69.1072
rradius 22.5952
rwrist 38.25
rhand -18.7277 -9.82336
rfingers 7.12502
rthumb 7.56801 -39.668
lclavicle -9.77151e-015 4.77083e-015
lhumerus -35.5648 14.366 82.8097
lradius 24.4849
lwrist 18.8355
lhand -35.9505 9.85967
lfingers 7.12502
lthumb -9.062 39.645
rfemur 5.73784 -9.57154 14.3539
rtibia -1.27222e-014
rfoot -9.95669 -9.99638
rtoes 6.25692
lfemur -9.17207 -20.8136 -14.6067
ltibia 20.8561
lfoot -23.3705 18.7233
ltoes -26.7084
21
root -10.3396 18.0241 -16.645 -176.812 86.8888 -181.156
lowerback 5.27781 -0.313111 -1.45427
upperback -2.93459 -0.433792 1.47737
thorax -5.99431 -0.115688 2.40065
lowerneck -21.0299 -5.49262 -6.66904
upperneck 33.0308 -6.73391 4.90687
head 15.6036 -2.71994 1.98682
rclavicle 6.33626e-016 -1.55052e-014
rhumerus -36.277 -21.8955 -68.7833
rradius 22.4002
rwrist 39.175
rhand -18.5802 -9.67313
rfingers 7.12502
rthumb 7.71039 -39.5126
lclavicle 6.33626e-016 -1.55052e-014
lhumerus -35.5663 14.4312 82.7954
lradius 24.5954
lwrist 18.7378
lhand -35.8378 9.83436
lfingers 7.12502
lthumb -8.95333 39.6244
rfemur 5.72648 -9.46501 14.2833
rtibia -1.27222e-014
rfoot -9.99695 -9.9589
rtoes 6.8438
lfemur -9.14463 -20.5687 -14.6831
ltibia 20.8456
lfoot -23.212 18.7303
ltoes -27.4467
22
root -10.3406 18.0243 -16.6556 -176.988 86.9901 -181.309
lowerback 5.29308 -0.29839 -1.45077
upperback -2.91923 -0.415702 1.45469
thorax -5.98795 -0.107789 2.37315
lowerneck -21.0867 -5.48564 -6.60979
upperneck 33.1028 -6.72184 4.84576
head 15.6443 -2.71403 1.95351
rclavicle 2.95071e-015 7.95139e-016
rhumerus -36.3566 -22.5471 -68.3966
rradius 22.2463
rwrist 40.2249
rhand -18.2626 -9.44213
rfingers 7.12502
rthumb 8.01686 -39.2701
lclavicle 2.95071e-015 7.95139e-016
lhumerus -35.5466 14.2989 82.8869
lradius 24.7355
lwrist 18.7594
lhand -35.6569 9.83246
lfingers 7.12502
lthumb -8.77876 39.6299
rfemur 5.73725 -9.36232 14.2311
rtibia 1.43125e-014
rfoot -10.0456 -9.92473
rtoes 7.47153
lfemur -9.09998 -20.3165 -14.7447
ltibia 20.8416
lfoot -23.0728 18.6927
ltoes -28.0542
23
root -10.3415 18.0244 -16.6661 -176.968 87.0646 -181.249
lowerback 5.32176 -0.278822 -1.40974
upperback -2.89798 -0.388406 1.43073
thorax -5.98369 -0.0969169 2.32232
lowerneck -21.1512 -5.49228 -6.58779
upperneck 33.1667 -6.71948 4.79606
head 15.6862 -2.7155 1.92909
rclavicle 4.57205e-015 3.18055e-015
rhumerus -36.4631 -23.1851 -67.9766
rradius 22.145
rwrist 41.2804
rhand -17.7771 -9.16931
rfingers 7.12502
rthumb 8.48548 -38.9788
lclavicle 4.57205e-015 3.18055e-015
lhumerus -35.5106 14.0209 83.0729
lradius 24.895
lwrist 18.9196
lhand -35.4518 9.84466
lfingers 7.12502
lthumb -8.58084 39.6503
rfemur 5.7709 -9.28401 14.1947
rtibia -1.59028e-015
rfoot -10.0717 -9.91612
rtoes 7.76919
lfemur -9.04432 -20.0565 -14.7948
ltibia 20.8414
lfoot -22.9421 18.5869
ltoes -28.4986
24
root -10.3419 18.0241 -16.6766 -176.978 87.1082 -181.211
lowerback 5.35562 -0.259602 -1.3553
upperback -2.87462 -0.360398 1.40912
thorax -5.98018 -0.0861714 2.26633
lowerneck -21.2059 -5.50873 -6.60846
upperneck 33.2108 -6.72337 4.76783
head 15.7202 -2.72255 1.91959
rclavicle 8.4732e-015 -1.86858e-014
rhumerus -36.5727 -23.7144 -67.5836
rradius 22.0889
rwrist 42.181
rhand -17.2291 -8.93067
rfingers 7.12502
rthumb 9.01424 -38.7181
lclavicle 8.4732e-015 -1.86858e-014
lhumerus -35.4668 13.6844 83.3193
lradius 25.0596
lwrist 19.1753
lhand -35.2741 9.84743
lfingers 7.12502
lthumb -8.40927 39.66
rfemur 5.81912 -9.2356 14.1628
rtibia -1.11319e-014
rfoot -10.0496 -9.94488
rtoes 7.46604
lfemur -8.98415 -19.7881 -14.845
ltibia 20.8385
lfoot -22.798 18.4267
ltoes -28.8528
25
root -10.3417 18.0237 -16.6869 -177.219 87.1342 -181.405
lowerback 5.38373 -0.245862 -1.3165
upperback -2.85207 -0.340451 1.39443
thorax -5.97371 -0.0786198 2.22716
lowerneck -21.2424 -5.52601 -6.65776
upperneck 33.2294 -6.72428 4.75649
head 15.7397 -2.73046 1.92258
rclavicle -3.49737e-015 2.78299e-015
rhumerus -36.6528 -24.0828 -67.2762
rradius 22.0516
rwrist 42.8035
rhand -16.802 -8.79855
rfingers 7.12502
rthumb 9.42641 -38.5678
lclavicle -3.49737e-015 2.78299e-015
lhumerus -35.4242 13.3777 83.5828
lradius 25.2168
lwrist 19.455
lhand -35.1656 9.81753
lfingers 7.12502
lthumb -8.30458 39.6343
rfemur 5.86716 -9.20536 14.123
rtibia -3.18055e-015
rfoot -9.97502 -10.0028
rtoes 6.56783
lfemur -8.92413 -19.5199 -14.9069
ltibia 20.8258
lfoot -22.6261 18.2591
ltoes -29.2309
26
root -10.3409 18.0234 -16.6971 -177.704 87.1667 -181.854
lowerback 5.39905 -0.240795 -1.31245
upperback -2.83229 -0.333995 1.39167
thorax -5.96199 -0.0760715 2.2213
lowerneck -21.2616 -5.53317 -6.70985
upperneck 33.2235 -6.71097 4.74806
head 15.7425 -2.73327 1.92994
rclavicle 7.57867e-016 -2.78299e-015
rhumerus -36.6803 -24.3106 -67.0794
rradius 21.999
rwrist 43.1216
rhand -16.6776 -8.7952
rfingers 7.12502
rthumb 9.54645 -38.5589
lclavicle 7.57867e-016 -2.78299e-015
lhumerus -35.3907 13.1578 83.8265
lradius 25.3599
lwrist 19.6994
lhand -35.1476 9.7447
lfingers 7.12502
lthumb -8.28718 39.5622
rfemur 5.90046 -9.17001 14.07
rtibia 7.95139e-015
rfoot -9.87223 -10.0624
rtoes 5.41747
lfemur -8.86591 -19.2692 -14.9824
ltibia 20.7998
lfoot -22.4326 18.1384
ltoes -29.7036
27
root -10.3401 18.0238 -16.7071 -178.262 87.2288 -182.388
lowerback 5.40269 -0.244958 -1.34459
upperback -2.81635 -0.34166 1.40466
thorax -5.94675 -0.0786702 2.25365
lowerneck -21.2703 -5.52145 -6.73959
upperneck 33.2008 -6.67446 4.72749
head 15.7311 -2.72595 1.93277
rclavicle 5.59082e-015 -1.43125e-014
rhumerus -36.6544 -24.4769 -66.9739
rradius 21.9051
rwrist 43.2164
rhand -16.9454 -8.86927
rfingers 7.12502
rthumb 9.28799 -38.6447
lclavicle 5.59082e-015 -1.43125e-014
lhumerus -35.3721 13.0352 84.0306
lradius 25.4891
lwrist 19.8888
lhand -35.2159 9.63764
lfingers 7.12502
lthumb -8.35315 39.4525
rfemur 5.91163 -9.10639 14.0082
rtibia -3.18055e-015
rfoot -9.78713 -10.0891
rtoes 4.57618
lfemur -8.80839 -19.0522 -15.0623
ltibia 20.7634
lfoot -22.2424 18.0992
ltoes -30.2631
28
root -10.3397 18.0248 -16.7167 -178.624 87.3316 -182.734
lowerback 5.40318 -0.256234 -1.39649
upperback -2.80456 -0.359346 1.43358
thorax -5.93344 -0.0849851 2.31482
lowerneck -21.2754 -5.48806 -6.73486
upperneck 33.1718 -6.61276 4.68866
head 15.7111 -2.70665 1.92689
rclavicle -1.15544e-015 -1.15295e-014
rhumerus -36.5957 -24.6739 -66.9098
rradius 21.7647
rwrist 43.2336
rhand -17.5454 -8.91417
rfingers 7.12502
rthumb 8.70903 -38.7145
lclavicle -1.15544e-015 -1.15295e-014
lhumerus -35.3706 12.9823 84.1936
lradius 25.6081
lwrist 20.0418
lhand -35.3467 9.51812
lfingers 7.12502
lthumb -8.47938 39.3279
rfemur 5.90389 -9.0027 13.9488
rtibia 0
rfoot -9.7659 -10.0583
rtoes 4.56323
lfemur -8.74953 -18.8735 -15.1309
ltibia 20.7257
lfoot -22.0872 18.1375
ltoes -30.829
29
root -10.34 18.026 -16.7257 -178.603 87.4693 -182.699
lowerback 5.41189 -0.270553 -1.44494
upperback -2.79658 -0.380222 1.47248
thorax -5.92862 -0.0926283 2.38492
lowerneck -21.2805 -5.43765 -6.70065
upperneck 33.1466 -6.53277 4.63752
head 15.6895 -2.67763 1.9145
rclavicle 2.19906e-015 -5.96354e-015
rhumerus -36.5358 -24.9541 -66.8375
rradius 21.5962
rwrist 43.3107
rhand -18.2799 -8.82703
rfingers 7.12502
rthumb 8.00016 -38.6556
lclavicle 2.19906e-015 -5.96354e-015
lhumerus -35.3838 12.9546 84.3246
lradius 25.7183
lwrist 20.1916
lhand -35.5046 9.41018
lfingers 7.12502
lthumb -8.63178 39.2137
rfemur 5.8894 -8.8638 13.9003
rtibia -1.59028e-015
rfoot -9.83014 -9.96705
rtoes 5.58483
lfemur -8.68771 -18.7202 -15.1788
ltibia 20.6978
lfoot -21.9907 18.2112
ltoes -31.2889
30
root -10.341 18.0269 -16.7342 -178.234 87.6225 -182.306
lowerback 5.43635 -0.283348 -1.47197
upperback -2.79145 -0.397536 1.50996
thorax -5.93607 -0.0992039 2.44135
lowerneck -21.2859 -5.3808 -6.65445
upperneck 33.1331 -6.44841 4.58825
head 15.6728 -2.64459 1.90203
rclavicle -6.14369e-015 1.59028e-015
rhumerus -36.501 -25.3033 -66.7348
rradius 21.4338
rwrist 43.5139
rhand -18.8958 -8.57265
rfingers 7.12502
rthumb 7.40576 -38.423
lclavicle -6.14369e-015 1.59028e-015
lhumerus -35.4045 12.9176 84.433
lradius 25.8152
lwrist 20.3563
lhand -35.6564 9.32871
lfingers 7.12502
lthumb -8.77824 39.1262
rfemur 5.88284 -8.70829 13.8622
rtibia -2.54444e-014
rfoot -9.96397 -9.83679
rtoes 7.40771
lfemur -8.62303 -18.5653 -15.2095
ltibia 20.6871
lfoot -21.9549 18.2609
ltoes -31.5687
31
root -10.3423 18.0266 -16.7422 -177.848 87.7682 -181.884
lowerback 5.47686 -0.290648 -1.47346
upperback -2.7879 -0.406502 1.53263
thorax -5.95497 -0.102864 2.46726
lowerneck -21.2901 -5.33015 -6.61575
upperneck 33.1344 -6.37598 4.55491
head 15.6652 -2.61464 1.89566
rclavicle 7.37367e-015 1.07344e-014
rhumerus -36.501 -25.6509 -66.6171
rradius 21.312
rwrist 43.8145
rhand -19.1947 -8.21181
rfingers 7.12502
rthumb 7.11721 -38.0721
lclavicle 7.37367e-015 1.07344e-014
lhumerus -35.4225 12.8604 84.5219
lradius 25.8883
lwrist 20.5214
lhand -35.779 9.27597
lfingers 7.12502
lthumb -8.89653 39.0684
rfemur 5.89452 -8.55878 13.8243
rtibia 7.95139e-015
rfoot -10.1197 -9.70615
rtoes 9.43574
lfemur -8.55637 -18.3801 -15.2397
ltibia 20.6935
lfoot -21.9588 18.2367
ltoes -31.6567
